<svg width="31" height="31" viewBox="0 0 31 31" fill="none" xmlns="http://www.w3.org/2000/svg">
<g clip-path="url(#clip0_51_3878)">
<path d="M28.2034 23.6912C27.7436 24.7533 27.1994 25.7309 26.5689 26.6297C25.7095 27.8551 25.0058 28.7033 24.4635 29.1743C23.6229 29.9474 22.7222 30.3433 21.7576 30.3658C21.0652 30.3658 20.2302 30.1688 19.2582 29.7691C18.283 29.3713 17.3867 29.1743 16.5673 29.1743C15.7079 29.1743 14.7861 29.3713 13.8002 29.7691C12.8128 30.1688 12.0174 30.3771 11.4092 30.3977C10.4843 30.4371 9.56238 30.0299 8.64215 29.1743C8.05481 28.662 7.32017 27.7838 6.4401 26.5397C5.49585 25.2111 4.71955 23.6705 4.11138 21.9141C3.46005 20.017 3.13354 18.1799 3.13354 16.4014C3.13354 14.3641 3.57377 12.607 4.45553 11.1345C5.14851 9.95172 6.07043 9.01873 7.22428 8.33382C8.37813 7.6489 9.62486 7.29987 10.9675 7.27754C11.7021 7.27754 12.6655 7.50479 13.8627 7.95139C15.0565 8.39949 15.8231 8.62674 16.1592 8.62674C16.4104 8.62674 17.262 8.36102 18.7055 7.83129C20.0707 7.34003 21.2228 7.13662 22.1667 7.21674C24.7244 7.42316 26.6459 8.43139 27.9238 10.2478C25.6363 11.6338 24.5048 13.575 24.5273 16.0653C24.548 18.005 25.2517 19.6192 26.6346 20.9008C27.2614 21.4957 27.9613 21.9554 28.74 22.2819C28.5712 22.7717 28.3929 23.2408 28.2034 23.6912ZM22.3375 0.608509C22.3375 2.12886 21.782 3.5484 20.6749 4.86232C19.3389 6.4243 17.7228 7.32689 15.9704 7.18447C15.948 7.00207 15.9351 6.81011 15.9351 6.60839C15.9351 5.14886 16.5705 3.58687 17.6988 2.30973C18.2621 1.66309 18.9786 1.12542 19.8474 0.696515C20.7143 0.274005 21.5343 0.0403485 22.3056 0.000335693C22.3281 0.203582 22.3375 0.406842 22.3375 0.608489V0.608509Z" fill="black"/>
</g>
<defs>
<clipPath id="clip0_51_3878">
<rect width="30.4" height="30.4" fill="white" transform="translate(0.600098)"/>
</clipPath>
</defs>
</svg>
