<svg width="31" height="31" viewBox="0 0 31 31" fill="none" xmlns="http://www.w3.org/2000/svg">
<g clip-path="url(#clip0_51_3876)">
<path d="M30.4 15.2C30.4 6.80534 23.5947 0 15.2 0C6.80534 0 0 6.80534 0 15.2C0 22.3282 4.90778 28.3097 11.5283 29.9525V19.8451H8.39405V15.2H11.5283V13.1985C11.5283 8.02499 13.8697 5.62704 18.9489 5.62704C19.912 5.62704 21.5737 5.81613 22.2534 6.00461V10.215C21.8947 10.1773 21.2715 10.1585 20.4975 10.1585C18.0053 10.1585 17.0422 11.1027 17.0422 13.5572V15.2H22.0072L21.1541 19.8451H17.0422V30.2887C24.5687 29.3798 30.4006 22.9715 30.4006 15.2H30.4Z" fill="#0866FF"/>
<path d="M21.1534 19.8451L22.0064 15.2H17.0415V13.5572C17.0415 11.1027 18.0046 10.1585 20.4968 10.1585C21.2708 10.1585 21.894 10.1773 22.2527 10.215V6.00461C21.5729 5.81552 19.9113 5.62704 18.9482 5.62704C13.869 5.62704 11.5276 8.025 11.5276 13.1985V15.2H8.39331V19.8451H11.5276V29.9525C12.7034 30.2444 13.9334 30.4 15.1993 30.4C15.8225 30.4 16.4372 30.3617 17.0409 30.2887V19.8451H21.1528H21.1534Z" fill="white"/>
</g>
<defs>
<clipPath id="clip0_51_3876">
<rect width="30.4" height="30.4" fill="white"/>
</clipPath>
</defs>
</svg>
