<svg width="89" height="48" viewBox="0 0 89 48" fill="none" xmlns="http://www.w3.org/2000/svg">
<path d="M65.2096 0.325195H23.6796C10.7015 0.325195 0.0830078 10.9437 0.0830078 23.9218C0.0830078 36.9 10.7015 47.5184 23.6796 47.5184H65.2096C78.1878 47.5184 88.8063 36.9 88.8063 23.9218C88.8063 10.9437 78.1878 0.325195 65.2096 0.325195Z" fill="white"/>
<path d="M65.2096 2.23652C68.1238 2.23652 70.9554 2.81464 73.6218 3.94728C76.2057 5.04452 78.5181 6.6137 80.5238 8.60761C82.5178 10.6015 84.0869 12.9258 85.1842 15.5096C86.3168 18.176 86.8949 21.0076 86.8949 23.9218C86.8949 26.836 86.3168 29.6676 85.1842 32.334C84.0869 34.9178 82.5178 37.2303 80.5238 39.236C78.5299 41.2299 76.2057 42.7991 73.6218 43.8964C70.9554 45.029 68.1238 45.6071 65.2096 45.6071H23.6796C20.7654 45.6071 17.9338 45.029 15.2674 43.8964C12.6836 42.7991 10.3711 41.2299 8.36542 39.236C6.3715 37.2421 4.80233 34.9178 3.70509 32.334C2.57245 29.6676 1.99433 26.836 1.99433 23.9218C1.99433 21.0076 2.57245 18.176 3.70509 15.5096C4.80233 12.9258 6.3715 10.6133 8.36542 8.60761C10.3593 6.6137 12.6836 5.04452 15.2674 3.94728C17.9338 2.81464 20.7654 2.23652 23.6796 2.23652H65.2096ZM65.2096 0.325195H23.6796C10.7015 0.325195 0.0830078 10.9437 0.0830078 23.9218C0.0830078 36.9 10.7015 47.5184 23.6796 47.5184H65.2096C78.1878 47.5184 88.8063 36.9 88.8063 23.9218C88.8063 10.9437 78.1878 0.325195 65.2096 0.325195Z" fill="#3C4043"/>
<path d="M42.3916 32.7351H40.1264V15.1084H46.1317C47.6537 15.1084 48.9515 15.6157 50.0134 16.6304C51.0988 17.645 51.6415 18.8839 51.6415 20.3468C51.6415 21.8452 51.0988 23.084 50.0134 24.0869C48.9633 25.0898 47.6655 25.5853 46.1317 25.5853H42.3916V32.7351ZM42.3916 17.2793V23.4262H46.1789C47.0756 23.4262 47.8307 23.1194 48.4206 22.5177C49.0223 21.916 49.329 21.1845 49.329 20.3586C49.329 19.5446 49.0223 18.8249 48.4206 18.2231C47.8307 17.5978 47.0874 17.2911 46.1789 17.2911H42.3916V17.2793Z" fill="#3C4043"/>
<path d="M57.5642 20.276C59.2396 20.276 60.561 20.7244 61.5284 21.6211C62.4959 22.5177 62.9796 23.7448 62.9796 25.3021V32.7351H60.8205V31.0597H60.7262C59.7941 32.4401 58.5435 33.1244 56.9861 33.1244C55.6529 33.1244 54.5438 32.7351 53.6472 31.9446C52.7505 31.1541 52.3022 30.1748 52.3022 28.995C52.3022 27.7444 52.7741 26.7533 53.718 26.0218C54.6618 25.2785 55.9242 24.9128 57.4934 24.9128C58.8384 24.9128 59.9475 25.1606 60.8087 25.6561V25.137C60.8087 24.3465 60.502 23.6858 59.8767 23.1312C59.2514 22.5767 58.5199 22.3054 57.6822 22.3054C56.4198 22.3054 55.4169 22.8363 54.6854 23.9099L52.6915 22.6593C53.7887 21.0665 55.4169 20.276 57.5642 20.276ZM54.6382 29.0304C54.6382 29.6203 54.886 30.1158 55.3933 30.5052C55.8888 30.8945 56.4788 31.0951 57.1513 31.0951C58.1069 31.0951 58.9564 30.7412 59.6997 30.0333C60.443 29.3254 60.8205 28.4995 60.8205 27.5438C60.1126 26.9893 59.1334 26.7061 57.871 26.7061C56.9507 26.7061 56.1838 26.9303 55.5703 27.3668C54.945 27.827 54.6382 28.3815 54.6382 29.0304Z" fill="#3C4043"/>
<path d="M75.2971 20.6655L67.7462 38.0326H65.4101L68.2181 31.9565L63.2392 20.6655H65.705L69.2917 29.3255H69.3389L72.8312 20.6655H75.2971Z" fill="#3C4043"/>
<path d="M33.3812 24.1577C33.3812 23.4191 33.3152 22.7124 33.1925 22.0328H23.6972V25.9263L29.1657 25.9275C28.9439 27.2229 28.2301 28.3272 27.1364 29.0634V31.5895H30.3915C32.2922 29.8303 33.3812 27.23 33.3812 24.1577Z" fill="#4285F4"/>
<path d="M27.1377 29.0636C26.2315 29.6747 25.0647 30.0322 23.6996 30.0322C21.0627 30.0322 18.8258 28.2554 18.0246 25.8603H14.6668V28.4654C16.3304 31.7666 19.7496 34.0318 23.6996 34.0318C26.4298 34.0318 28.7233 33.134 30.3928 31.5884L27.1377 29.0636Z" fill="#34A853"/>
<path d="M17.7084 23.9276C17.7084 23.2551 17.8205 22.605 18.0246 21.9939V19.3888H14.6668C13.979 20.7539 13.592 22.2947 13.592 23.9276C13.592 25.5605 13.9801 27.1014 14.6668 28.4664L18.0246 25.8614C17.8205 25.2502 17.7084 24.6001 17.7084 23.9276Z" fill="#FABB05"/>
<path d="M23.6996 17.822C25.1898 17.822 26.5241 18.3352 27.5777 19.3381L30.4624 16.4558C28.7104 14.8241 26.4262 13.8224 23.6996 13.8224C19.7507 13.8224 16.3304 16.0876 14.6668 19.3888L18.0246 21.9939C18.8257 19.5988 21.0627 17.822 23.6996 17.822Z" fill="#E94235"/>
</svg>
