<svg width="32" height="31" viewBox="0 0 32 31" fill="none" xmlns="http://www.w3.org/2000/svg">
<g clip-path="url(#clip0_51_3877)">
<path d="M16 12.4363V18.3229H24.1803C23.8211 20.216 22.7432 21.8189 21.1265 22.8967L26.0595 26.7244C28.9337 24.0714 30.5919 20.1746 30.5919 15.5456C30.5919 14.4678 30.4952 13.4313 30.3155 12.4365L16 12.4363Z" fill="#4285F4"/>
<path d="M7.4815 18.0931L6.36891 18.9448L2.43066 22.0123C4.93175 26.973 10.0579 30.4 15.9997 30.4C20.1036 30.4 23.5443 29.0458 26.0592 26.7244L21.1262 22.8967C19.772 23.8087 18.0447 24.3615 15.9997 24.3615C12.0477 24.3615 8.68999 21.6946 7.48772 18.1019L7.4815 18.0931Z" fill="#34A853"/>
<path d="M2.43048 8.38763C1.39417 10.4326 0.800049 12.7403 0.800049 15.1999C0.800049 17.6595 1.39417 19.9672 2.43048 22.0122C2.43048 22.0259 7.48802 18.0878 7.48802 18.0878C7.18402 17.1758 7.00433 16.2086 7.00433 15.1997C7.00433 14.1909 7.18402 13.2237 7.48802 12.3117L2.43048 8.38763Z" fill="#FBBC05"/>
<path d="M16 6.05236C18.2386 6.05236 20.2284 6.82616 21.8174 8.31854L26.1701 3.96587C23.5309 1.50628 20.1041 0 16 0C10.0582 0 4.93175 3.41308 2.43066 8.38765L7.48805 12.312C8.69016 8.71925 12.048 6.05236 16 6.05236Z" fill="#EA4335"/>
</g>
<defs>
<clipPath id="clip0_51_3877">
<rect width="30.4" height="30.4" fill="white" transform="translate(0.800049)"/>
</clipPath>
</defs>
</svg>
