<svg width="115" height="28" viewBox="0 0 115 28" fill="none" xmlns="http://www.w3.org/2000/svg">
<path d="M6.86072 26.9895L7.34191 23.9337L6.27014 23.9088H1.15228L4.70896 1.35922C4.71982 1.29114 4.75584 1.22767 4.80827 1.1826C4.86071 1.13753 4.92798 1.11269 4.99789 1.11269H13.6274C16.4924 1.11269 18.4693 1.70879 19.5016 2.88533C19.9855 3.43728 20.2937 4.01405 20.4428 4.64878C20.5991 5.31481 20.602 6.11052 20.4492 7.08102L20.4381 7.15185V7.77369L20.9222 8.04784C21.3298 8.264 21.6534 8.51145 21.9018 8.79479C22.316 9.2667 22.5837 9.86647 22.6968 10.5775C22.8136 11.3089 22.7749 12.1791 22.5837 13.1643C22.3629 14.2977 22.0059 15.2847 21.5239 16.0924C21.0803 16.8366 20.5154 17.4537 19.8448 17.9322C19.2045 18.3866 18.4436 18.7316 17.5835 18.9525C16.7498 19.1693 15.7996 19.279 14.7572 19.279H14.0856C13.6054 19.279 13.1388 19.4519 12.7728 19.762C12.4057 20.0784 12.1626 20.5106 12.0882 20.9835L12.0376 21.2586L11.1875 26.6445L11.1489 26.8423C11.1388 26.905 11.1213 26.9363 11.0956 26.9575C11.0726 26.9765 11.0395 26.9895 11.0072 26.9895H6.86072Z" fill="#253B80"/>
<path d="M21.3787 7.22487C21.353 7.38953 21.3236 7.55786 21.2905 7.7308C20.1523 13.5731 16.259 15.5914 11.2863 15.5914H8.75449C8.14644 15.5914 7.63399 16.0329 7.53918 16.6327L5.87578 27.183C5.81407 27.5768 6.11783 27.9319 6.51508 27.9319H11.0058C11.5376 27.9319 11.9891 27.5455 12.0728 27.0212L12.1171 26.793L12.9627 21.4281L13.0169 21.1339C13.0996 20.6077 13.5522 20.2214 14.0839 20.2214H14.7556C19.1062 20.2214 22.5122 18.4551 23.5077 13.3441C23.9235 11.209 23.7082 9.4262 22.6078 8.17236C22.2749 7.79428 21.8618 7.48059 21.3787 7.22487Z" fill="#179BD7"/>
<path d="M20.1859 6.74874C20.0122 6.69814 19.8326 6.65214 19.6485 6.61075C19.4637 6.57029 19.2741 6.53441 19.0792 6.50314C18.3964 6.39274 17.6485 6.34031 16.8472 6.34031H10.0834C9.91679 6.34031 9.75869 6.37802 9.61701 6.4461C9.30504 6.59603 9.07331 6.89134 9.01717 7.25285L7.57808 16.3654L7.53676 16.6312C7.63157 16.0315 8.14402 15.5899 8.75207 15.5899H11.2839C16.2566 15.5899 20.1501 13.5707 21.2881 7.72936C21.322 7.55642 21.3506 7.38808 21.3763 7.22343C21.0884 7.07072 20.7765 6.94009 20.4406 6.82877C20.358 6.80117 20.2725 6.77451 20.1859 6.74874Z" fill="#222D65"/>
<path d="M9.02056 7.25347C9.0767 6.89193 9.30869 6.59665 9.6204 6.44762C9.76314 6.37954 9.92045 6.34183 10.0868 6.34183H16.8508C17.6522 6.34183 18.4001 6.39426 19.0825 6.50466C19.2777 6.53593 19.4673 6.57181 19.6522 6.61227C19.8363 6.65369 20.0155 6.69968 20.1895 6.75026C20.2759 6.77603 20.3614 6.80269 20.4451 6.82938C20.7809 6.94068 21.0929 7.07224 21.3807 7.22402C21.7195 5.06501 21.3781 3.59501 20.2107 2.2639C18.9236 0.798512 16.6005 0.171143 13.6281 0.171143H4.99831C4.39105 0.171143 3.8733 0.612674 3.77929 1.21338L0.185004 23.9947C0.114029 24.4454 0.461753 24.8522 0.916203 24.8522H6.24407L9.02056 7.25347Z" fill="#253B80"/>
<path fill-rule="evenodd" clip-rule="evenodd" d="M42.7764 6.12614H36.4575C36.0251 6.12614 35.6574 6.44037 35.5899 6.86705L33.0343 23.0687C32.9835 23.3885 33.2311 23.6767 33.5554 23.6767H36.5721C37.0045 23.6767 37.3722 23.3624 37.4397 22.9349L38.129 18.5651C38.1954 18.1372 38.5641 17.8234 38.9956 17.8234H40.9959C45.1584 17.8234 47.5605 15.8093 48.1882 11.8183C48.4708 10.0722 48.2002 8.70029 47.3822 7.73921C46.4843 6.68449 44.8912 6.12614 42.7764 6.12614ZM43.5054 12.0436C43.1599 14.3108 41.4274 14.3108 39.7523 14.3108H38.7988L39.4677 10.0765C39.5075 9.82085 39.7292 9.63231 39.9879 9.63231H40.425C41.566 9.63231 42.6425 9.63231 43.1988 10.2826C43.5302 10.6708 43.6319 11.2471 43.5054 12.0436ZM61.665 11.9709H58.639C58.3812 11.9709 58.1584 12.1594 58.1186 12.4155L57.9848 13.2616L57.7732 12.9551C57.1181 12.0042 55.6575 11.6866 54.1995 11.6866C50.8554 11.6866 47.9996 14.2189 47.4434 17.7712C47.1543 19.5429 47.5652 21.2372 48.5704 22.4189C49.4927 23.5052 50.8122 23.958 52.3819 23.958C55.076 23.958 56.5704 22.2256 56.5704 22.2256L56.4353 23.0666C56.3844 23.3881 56.632 23.6762 56.9543 23.6762H59.6801C60.1137 23.6762 60.4793 23.362 60.5477 22.9345L62.1832 12.5788C62.2349 12.2603 61.9882 11.9709 61.665 11.9709ZM57.4469 17.8597C57.1549 19.5882 55.7828 20.7485 54.0332 20.7485C53.1545 20.7485 52.452 20.4668 52.0013 19.9328C51.5541 19.4026 51.3839 18.6476 51.5263 17.8071C51.7991 16.0931 53.1942 14.8952 54.9174 14.8952C55.7764 14.8952 56.475 15.1804 56.9351 15.719C57.396 16.2633 57.579 17.0226 57.4469 17.8597ZM74.7398 11.9705H77.7807C78.2066 11.9705 78.455 12.448 78.213 12.7973L68.0995 27.394C67.9358 27.6305 67.666 27.7711 67.3778 27.7711H64.3407C63.9131 27.7711 63.6634 27.2897 63.911 26.9396L67.0601 22.495L63.7109 12.6669C63.595 12.3253 63.8473 11.9705 64.2107 11.9705H67.1986C67.5869 11.9705 67.9294 12.2253 68.0414 12.5968L69.8188 18.5326L74.0129 12.3557C74.1771 12.1145 74.4499 11.9705 74.7398 11.9705Z" fill="#253B80"/>
<path fill-rule="evenodd" clip-rule="evenodd" d="M107.71 23.0673L110.303 6.56933C110.343 6.31324 110.565 6.1247 110.822 6.12385H113.742C114.064 6.12385 114.312 6.41286 114.261 6.73265L111.704 22.9335C111.637 23.361 111.269 23.6752 110.836 23.6752H108.229C107.906 23.6752 107.659 23.3871 107.71 23.0673ZM87.8492 6.1247H81.5292C81.0977 6.1247 80.73 6.43894 80.6625 6.86561L78.1068 23.0673C78.056 23.3871 78.3035 23.6752 78.6263 23.6752H81.8691C82.1705 23.6752 82.4283 23.4555 82.4754 23.1562L83.2006 18.5637C83.2673 18.1357 83.6358 17.8219 84.0672 17.8219H86.0666C90.2299 17.8219 92.6316 15.8078 93.2597 11.8168C93.5432 10.0708 93.2708 8.69886 92.4533 7.73777C91.5558 6.68305 89.9639 6.1247 87.8492 6.1247ZM88.5782 12.0421C88.2335 14.3093 86.501 14.3093 84.8249 14.3093H83.8723L84.5423 10.0751C84.582 9.81941 84.8018 9.63087 85.0614 9.63087H85.4983C86.6387 9.63087 87.7162 9.63087 88.272 10.2811C88.6038 10.6693 88.7047 11.2457 88.5782 12.0421ZM106.736 11.9695H103.712C103.452 11.9695 103.232 12.158 103.193 12.4141L103.059 13.2602L102.846 12.9536C102.191 12.0028 100.732 11.6852 99.2736 11.6852C95.9295 11.6852 93.0746 14.2174 92.5183 17.7698C92.2301 19.5414 92.6393 21.2357 93.6445 22.4174C94.5685 23.5038 95.8863 23.9565 97.4559 23.9565C100.15 23.9565 101.644 22.2242 101.644 22.2242L101.509 23.0651C101.458 23.3866 101.706 23.6748 102.031 23.6748H104.755C105.187 23.6748 105.554 23.3606 105.622 22.933L107.258 12.5774C107.308 12.2589 107.061 11.9695 106.736 11.9695ZM102.518 17.8582C102.228 19.5868 100.854 20.7471 99.1042 20.7471C98.2273 20.7471 97.5235 20.4653 97.0724 19.9313C96.6251 19.4012 96.4571 18.6462 96.5978 17.8057C96.8719 16.0917 98.2653 14.8938 99.9885 14.8938C100.848 14.8938 101.546 15.1789 102.007 15.7176C102.469 16.2619 102.652 17.0211 102.518 17.8582Z" fill="#179BD7"/>
</svg>
